<svg xmlns="http://www.w3.org/2000/svg" version="1.1" xmlns:xlink="http://www.w3.org/1999/xlink" xmlns:svgjs="http://svgjs.com/svgjs" width="2560" height="250" preserveAspectRatio="none" viewBox="0 0 2560 250"><g mask="url(&quot;#SvgjsMask1352&quot;)" fill="none"><rect width="2560" height="250" x="0" y="0" fill="rgba(181, 234, 234, 1)"></rect><path d="M2252.482148130225 41.38401688286685L2267.425513582396-35.10368318101781 2202.633483860487-14.051476565461677z" fill="rgba(237, 246, 229, 1)" class="triangle-float2"></path><path d="M1726.308133957857 270.91881670204083L1738.6034016425963 221.6051914993698 1676.994508755186 258.62354901730174z" fill="rgba(237, 246, 229, 1)" class="triangle-float2"></path><path d="M761.3992225625242 120.54605119118662L780.6051818356874 61.627304724848216 727.428892863369 71.96372821408414z" fill="rgba(237, 246, 229, 1)" class="triangle-float1"></path><path d="M1593.2917028922718 119.66681193067885L1661.7141259461205 131.79877794486876 1641.9375241510845 74.36335588826233z" fill="rgba(237, 246, 229, 1)" class="triangle-float2"></path><path d="M334.19732536161365 75.64289551538181L316.02703462768574 148.2251987124467 379.20467275965757 131.29680159527916z" fill="rgba(237, 246, 229, 1)" class="triangle-float3"></path><path d="M1946.209100158227 9.321201997375054L1905.2870263781854 65.64560449641193 2002.533502657264 50.24327577741678z" fill="rgba(237, 246, 229, 1)" class="triangle-float1"></path><path d="M1436.7596226473588 67.59116936894647L1461.9947644161803 71.58802317451159 1455.3724742401173 31.736883618496762z" fill="rgba(237, 246, 229, 1)" class="triangle-float1"></path><path d="M530.7106557766479 79.72344036103829L547.1373494554597 51.271572308965645 496.2462005379448 40.857465816784185z" fill="rgba(237, 246, 229, 1)" class="triangle-float1"></path><path d="M696.2011195190024 63.67128439348823L723.8326447875112-8.106762684540996 657.2530178969143 1.250393652837289z" fill="rgba(237, 246, 229, 1)" class="triangle-float2"></path><path d="M2456.7110246442194 169.00705670697542L2424.8767074529515 154.83350551621217 2419.5335392624406 209.67175689849603z" fill="rgba(237, 246, 229, 1)" class="triangle-float3"></path><path d="M28.702315746017106 59.834808079482855L-13.978009720184254 105.60385364310682 74.47136130964107 102.51513354568422z" fill="rgba(237, 246, 229, 1)" class="triangle-float3"></path><path d="M496.64046089029137 133.6161477823158L465.89721098028497 213.47748073185738 539.9747035733336 203.06656809017005z" fill="rgba(237, 246, 229, 1)" class="triangle-float3"></path><path d="M1254.064488141591 65.76706060966382L1225.2919802523256 66.77181872536435 1241.185371370509 109.42820150141227z" fill="rgba(237, 246, 229, 1)" class="triangle-float3"></path><path d="M1880.88568317329 241.19883735147434L1902.771802023142 196.32564379636156 1824.518952265547 185.93306229913986z" fill="rgba(237, 246, 229, 1)" class="triangle-float1"></path><path d="M1840.875808837607 13.236649681632837L1781.542418745916-13.248061381720593 1786.4928051420902 43.33511404542921z" fill="rgba(237, 246, 229, 1)" class="triangle-float2"></path><path d="M2376.7655859079414 215.21198614348313L2412.5354641171602 208.2590261593566 2384.2210850363613 158.08068883759174z" fill="rgba(237, 246, 229, 1)" class="triangle-float1"></path><path d="M858.3474081710507 78.13544514122805L926.0905538100176 96.35637991199214 911.2552157220778 36.85508876632514z" fill="rgba(237, 246, 229, 1)" class="triangle-float3"></path><path d="M618.9645761661026 60.63310891644434L616.2724247222853 135.6756892023437 674.7591777235082 105.87520008992598z" fill="rgba(237, 246, 229, 1)" class="triangle-float3"></path><path d="M1914.326171928936 142.27877252978993L1977.9438039034167 180.58666760724526 1980.2093327941927 115.71040847122238z" fill="rgba(237, 246, 229, 1)" class="triangle-float2"></path><path d="M1742.7364774605483 130.2849732628941L1774.0648158371416 66.20742381924768 1711.8001296873108 69.47057774811584z" fill="rgba(237, 246, 229, 1)" class="triangle-float1"></path></g><defs><mask id="SvgjsMask1352"><rect width="2560" height="250" fill="#ffffff"></rect></mask><style>
            @keyframes float1 {
                0%{transform: translate(0, 0)}
                50%{transform: translate(-10px, 0)}
                100%{transform: translate(0, 0)}
            }

            .triangle-float1 {
                animation: float1 5s infinite;
            }

            @keyframes float2 {
                0%{transform: translate(0, 0)}
                50%{transform: translate(-5px, -5px)}
                100%{transform: translate(0, 0)}
            }

            .triangle-float2 {
                animation: float2 4s infinite;
            }

            @keyframes float3 {
                0%{transform: translate(0, 0)}
                50%{transform: translate(0, -10px)}
                100%{transform: translate(0, 0)}
            }

            .triangle-float3 {
                animation: float3 6s infinite;
            }
        </style></defs></svg>